<?xml version="1.0" standalone="no"?>
<!DOCTYPE svg PUBLIC "-//W3C//DTD SVG 20010904//EN"
 "http://www.w3.org/TR/2001/REC-SVG-20010904/DTD/svg10.dtd">
<svg version="1.0" xmlns="http://www.w3.org/2000/svg"
 width="300.000000pt" height="150.000000pt" viewBox="0 0 265.000000 175.000000"
 preserveAspectRatio="xMidYMid meet">
<metadata>
Created by potrace 1.10, written by Peter Selinger 2001-2011
</metadata>
<g transform="translate(0.000000,195.000000) scale(0.100000,-0.100000)"
fill="#000000" stroke="none">
<path d="M1410 1723 c-8 -3 -199 -189 -425 -413 l-410 -408 -85 -6 c-47 -4
-89 -12 -95 -18 -7 -7 6 -9 45 -4 30 3 152 6 269 6 167 0 212 3 203 12 -17 17
-15 43 4 59 15 12 15 48 -2 113 -11 47 21 30 78 -41 30 -38 63 -85 72 -105
l18 -37 110 -3 c60 -2 112 0 115 5 2 4 -3 7 -11 7 -9 0 -16 5 -16 10 0 6 -11
8 -25 4 -27 -7 -29 -3 -39 56 -5 26 -16 41 -41 58 -20 12 -40 33 -46 45 -6 13
-20 27 -32 32 -25 11 -41 78 -26 107 9 16 12 15 45 -7 31 -21 125 -55 153 -55
6 0 33 -33 61 -72 28 -40 80 -99 116 -130 l65 -58 129 0 c70 0 135 2 143 6 17
6 11 54 -7 54 -18 0 -46 65 -46 105 0 24 -5 35 -19 40 -17 5 -18 10 -9 37 l11
32 26 -31 c27 -31 108 -83 131 -83 7 0 30 -15 50 -32 21 -18 54 -44 74 -58 19
-14 36 -30 36 -36 0 -16 28 -50 35 -42 14 13 -27 68 -84 113 -33 26 -62 53
-64 60 -3 7 1 25 9 40 8 15 14 43 14 61 0 41 16 44 33 7 6 -16 21 -36 33 -45
12 -9 37 -48 57 -86 23 -43 45 -72 57 -75 11 -3 25 -19 31 -36 l11 -31 101 0
c56 0 135 -3 175 -7 50 -4 72 -2 72 6 0 6 -19 11 -47 12 -27 0 -70 3 -96 5
l-48 5 -407 406 c-224 223 -417 409 -430 414 -25 10 -48 10 -72 2z m302 -254
c123 -120 300 -295 394 -389 l170 -170 -44 0 c-38 0 -49 5 -81 38 -21 21 -54
65 -74 99 -20 33 -44 66 -53 73 -8 8 -21 28 -29 47 -20 47 -43 53 -72 17 -21
-26 -25 -27 -34 -12 -5 10 -31 30 -57 45 -26 15 -64 40 -84 56 -31 25 -43 29
-74 24 -29 -5 -40 -2 -60 18 -19 19 -30 23 -60 18 -32 -5 -40 -2 -80 38 -42
42 -45 43 -58 24 -42 -59 -86 -107 -125 -137 -105 -79 -111 -81 -172 -42 -22
14 -44 24 -49 22 -12 -5 -110 -122 -110 -132 0 -4 -12 -5 -26 -2 -21 6 -33 1
-55 -20 -16 -15 -29 -35 -29 -45 0 -12 -12 -19 -47 -24 -35 -5 -60 -18 -100
-52 -28 -24 -60 -43 -69 -41 -12 2 3 20 52 62 38 33 214 204 392 380 177 177
333 323 345 327 12 3 32 3 44 1 13 -2 123 -103 245 -223z m-227 -142 c21 -34
40 -64 42 -66 2 -3 17 9 34 25 20 18 33 25 36 17 2 -7 14 -24 25 -39 l22 -27
17 22 c23 28 39 27 85 -10 22 -17 58 -42 82 -56 23 -14 42 -28 42 -32 0 -7
-59 -61 -67 -61 -2 0 -25 17 -50 37 l-46 38 -31 -35 c-17 -20 -44 -41 -60 -48
-16 -7 -37 -24 -48 -37 -11 -14 -28 -25 -39 -25 -21 0 -26 16 -6 23 8 3 6 9
-7 19 -10 8 -16 20 -13 25 4 6 -11 17 -33 26 -23 9 -40 22 -40 31 0 8 6 13 13
11 8 -4 12 6 12 32 0 40 -17 62 -48 63 -14 0 -16 5 -11 27 4 15 13 38 20 52 8
14 14 32 14 39 0 24 16 10 55 -51z m-99 -84 c20 -23 23 -35 19 -65 -4 -32 -1
-40 31 -70 19 -18 41 -47 49 -65 22 -52 68 -51 123 4 7 7 25 16 39 19 29 8 53
-15 53 -48 0 -11 7 -33 16 -49 25 -50 17 -55 -90 -54 -85 2 -101 5 -129 26
-56 41 -85 70 -113 113 -37 55 -95 116 -110 116 -7 0 -16 5 -20 12 -8 13 72
88 94 88 7 0 24 -12 38 -27z m-346 -121 c0 -9 29 -46 65 -82 82 -81 93 -99 71
-115 -39 -29 -68 -4 -183 154 -10 14 -10 21 3 39 18 26 44 29 44 4z m860 -6
c0 -16 -28 -42 -36 -33 -8 7 14 47 26 47 6 0 10 -6 10 -14z m-1014 -138 c-11
-57 -19 -63 -93 -64 -94 -2 -104 6 -57 44 21 18 45 32 54 32 8 0 31 9 50 19
42 23 55 14 46 -31z"/>
<path d="M80 683 l0 -113 26 0 c26 0 27 1 21 50 -3 28 -2 52 4 55 12 8 26 -33
28 -87 1 -12 9 -18 26 -18 22 0 24 3 17 33 -8 36 -7 77 3 122 10 46 -11 66
-73 69 l-52 2 0 -113z m78 50 c-2 -17 -9 -28 -18 -28 -9 0 -16 11 -18 28 -3
22 1 27 18 27 17 0 21 -5 18 -27z"/>
<path d="M319 779 c-25 -25 -28 -169 -3 -193 18 -19 75 -21 92 -4 19 19 16
182 -3 198 -25 21 -65 20 -86 -1z m59 -89 c4 -77 -2 -97 -23 -80 -10 8 -14 31
-13 73 1 69 5 80 21 74 7 -2 13 -30 15 -67z"/>
<path d="M732 688 c-1 -61 1 -114 3 -118 3 -5 15 -6 26 -3 20 6 21 11 16 90
-2 46 -1 86 4 88 16 11 29 -35 29 -104 0 -64 2 -71 20 -71 18 0 20 7 20 54 0
58 16 116 32 116 7 0 9 -30 6 -84 -4 -82 -4 -84 19 -89 l24 -4 -3 116 -3 116
-27 3 c-21 3 -30 -3 -43 -27 -19 -38 -28 -39 -41 -5 -7 21 -17 27 -45 30 l-35
3 -2 -111z"/>
<path d="M1389 797 c0 -1 -1 -53 -3 -114 -2 -112 -2 -113 21 -113 22 0 23 3
23 93 1 83 2 90 15 73 10 -13 15 -44 15 -93 0 -71 1 -73 24 -73 23 0 24 3 24
64 0 35 3 73 7 85 14 45 25 18 25 -63 0 -75 2 -84 20 -89 19 -5 20 0 20 114 0
117 0 119 -22 119 -32 0 -45 -11 -58 -45 l-12 -30 -16 34 c-13 27 -24 35 -49
37 -18 2 -33 3 -34 1z"/>
<path d="M2290 758 c0 -24 9 -63 20 -87 11 -24 20 -56 20 -72 0 -16 2 -29 4
-29 2 0 11 -3 20 -6 13 -5 16 1 16 28 0 19 8 50 17 69 9 18 19 57 21 86 4 49
3 53 -17 53 -16 0 -21 -6 -21 -29 0 -45 -12 -91 -21 -85 -5 3 -9 30 -9 60 0
51 -1 54 -25 54 -23 0 -25 -4 -25 -42z"/>
<path d="M2722 788 c-24 -24 -13 -63 29 -102 27 -26 39 -45 37 -59 -4 -31 -33
-28 -33 3 0 20 -5 25 -25 25 -22 0 -25 -4 -22 -30 5 -42 19 -55 58 -55 42 0
64 23 64 67 0 29 -8 42 -42 74 -32 29 -40 41 -31 50 13 13 33 4 33 -17 0 -8 9
-14 20 -14 23 0 28 38 8 58 -16 16 -80 16 -96 0z"/>
<path d="M541 763 c-12 -30 -30 -190 -22 -198 13 -14 40 -3 43 18 2 12 10 22
18 22 10 0 14 -8 13 -22 -2 -18 2 -23 22 -23 24 0 25 3 25 57 0 31 -7 83 -16
115 -15 53 -19 58 -44 58 -21 0 -30 -7 -39 -27z m49 -63 c0 -22 1 -43 2 -47 1
-5 -6 -9 -15 -11 -18 -4 -23 30 -11 76 10 36 24 25 24 -18z"/>
<path d="M1030 675 l0 -115 26 0 c26 0 27 1 21 55 -5 50 -4 55 14 55 16 0 19
-7 19 -55 0 -48 2 -55 20 -55 19 0 20 7 20 115 l0 115 -25 0 c-24 0 -25 -3
-23 -42 2 -33 -1 -43 -12 -43 -10 0 -16 13 -18 43 -3 34 -7 42 -23 42 -18 0
-19 -8 -19 -115z"/>
<path d="M1249 690 c-1 -55 -2 -106 -3 -112 -1 -7 9 -13 22 -13 12 0 22 3 22
8 0 4 0 54 0 112 0 98 -1 105 -20 105 -19 0 -20 -7 -21 -100z"/>
<path d="M1700 758 c-6 -18 -14 -71 -17 -116 l-6 -84 24 4 c16 2 24 10 24 23
0 28 29 25 33 -2 2 -15 10 -23 23 -23 19 0 20 6 18 73 -1 39 -9 91 -18 115
-13 35 -20 42 -42 42 -21 0 -30 -7 -39 -32z m38 -16 c7 -5 15 -30 17 -55 5
-42 3 -47 -16 -47 -18 0 -20 4 -13 46 5 34 3 48 -7 55 -8 5 -9 9 -4 9 6 0 16
-4 23 -8z"/>
<path d="M1895 676 l0 -115 52 2 c43 2 53 5 53 20 0 12 -8 17 -30 17 l-30 0 0
95 c0 92 -1 95 -22 95 -23 0 -23 -2 -23 -114z"/>
<path d="M2110 771 c-10 -19 -29 -139 -30 -188 0 -18 6 -23 25 -23 20 0 25 5
25 25 0 16 6 25 15 25 9 0 15 -9 15 -25 0 -19 5 -25 23 -25 22 0 22 2 19 77
-6 104 -21 147 -55 151 -18 2 -29 -3 -37 -17z m50 -93 c0 -27 -4 -38 -15 -38
-11 0 -15 12 -15 50 0 29 -5 50 -11 50 -5 0 -7 5 -4 10 13 21 45 -31 45 -72z"/>
<path d="M2516 758 c-8 -18 -17 -70 -20 -116 -6 -83 -6 -83 16 -80 15 2 24 11
26 26 5 31 32 29 32 -3 0 -19 5 -25 23 -25 22 0 23 3 20 69 -2 37 -9 88 -16
112 -11 37 -17 45 -40 47 -23 3 -30 -2 -41 -30z m54 -80 c0 -27 -4 -38 -15
-38 -11 0 -15 11 -15 43 0 24 3 47 7 50 11 12 23 -16 23 -55z"/>
<path d="M404 498 c-2 -3 33 -9 78 -13 46 -4 99 -8 118 -10 19 -2 40 -4 46 -4
7 -1 13 -31 16 -77 5 -69 8 -78 39 -110 18 -19 49 -39 69 -44 48 -13 1332 -13
1380 0 20 5 49 24 65 40 27 28 30 39 34 111 2 49 7 79 15 80 12 2 16 2 159 13
54 4 96 10 94 12 -7 7 -2109 10 -2113 2z m611 -49 c264 -12 897 -6 1100 10
108 9 122 7 104 -15 -9 -11 -9 -14 0 -14 18 0 3 -89 -21 -122 -11 -15 -34 -32
-51 -36 -18 -5 -334 -8 -702 -8 -623 1 -673 2 -698 19 -31 20 -52 57 -61 110
-5 25 -3 37 5 37 8 0 9 3 0 13 -16 20 -1 29 34 23 16 -3 147 -11 290 -17z"/>
<path d="M1030 410 c0 -5 17 -10 38 -10 27 0 33 3 22 10 -20 13 -60 13 -60 0z"/>
<path d="M1197 410 c-42 -3 -77 -8 -77 -12 0 -5 -2 -8 -5 -8 -10 1 -35 -28
-35 -39 0 -6 18 -22 39 -37 42 -27 67 -26 96 3 14 14 18 14 34 -1 21 -19 45
-21 59 -3 15 18 18 49 5 54 -7 2 -13 -8 -15 -24 -4 -35 -32 -38 -36 -4 -4 23
-33 62 -38 51 -1 -3 -6 -2 -9 2 -4 4 18 7 49 7 32 -1 59 1 62 4 9 9 -50 12
-129 7z m-1 -22 c16 -26 13 -58 -7 -69 -33 -17 -59 -2 -59 36 0 18 6 36 13 38
22 10 46 7 53 -5z"/>
<path d="M1475 400 c3 -6 16 -8 28 -5 12 3 31 -1 42 -8 16 -12 17 -18 7 -30
-9 -10 -10 -17 -2 -22 19 -12 1 -23 -32 -20 -24 2 -33 8 -34 21 -1 11 -2 26
-3 34 -1 10 -4 11 -12 3 -17 -17 -2 -62 25 -75 19 -8 31 -7 54 4 24 13 32 13
47 2 20 -15 59 -12 79 5 9 8 18 6 32 -4 26 -20 47 -19 76 5 22 17 27 18 44 5
26 -20 48 -18 68 4 12 13 15 27 10 45 -8 35 -27 22 -19 -14 6 -28 -14 -57 -23
-32 -2 7 -12 12 -23 12 -20 0 -26 24 -9 35 19 12 10 24 -17 22 -18 -1 -27 3
-26 11 2 8 -11 12 -42 12 -31 0 -44 -4 -42 -12 1 -7 -5 -13 -13 -13 -8 0 -14
6 -13 13 2 8 -12 12 -47 12 -32 0 -49 -4 -47 -11 1 -6 -4 -14 -10 -16 -7 -3
-13 2 -13 11 0 12 -11 16 -46 16 -28 0 -43 -4 -39 -10z m183 -12 c34 -34 -6
-90 -48 -68 -25 13 -26 55 -2 69 23 14 36 13 50 -1z m109 4 c6 -4 11 -23 11
-43 0 -35 -1 -37 -34 -36 -31 1 -33 3 -32 36 0 20 3 39 5 44 5 9 34 9 50 -1z"/>
<path d="M1009 389 c-14 -60 19 -105 67 -92 29 8 29 8 -10 13 -37 5 -40 7 -40
37 -1 26 -13 58 -17 42z"/>
</g>
</svg>
